<svg xmlns="http://www.w3.org/2000/svg" viewBox="0 0 30 30.53"><defs><style>.cls-1{fill:none;stroke:#fff;stroke-miterlimit:10;}.cls-2{fill:#fff;}</style></defs><g id="Layer_2" data-name="Layer 2"><g id="レイヤー_3" data-name="レイヤー 3"><path class="cls-1" d="M28.55,16.89c-.12.27-.25.53-.39.79s-.19.32-.29.47-.17.29-.27.43l-.38.51c-.09.11-.17.24-.27.35s-.24.27-.36.4-.24.29-.38.43l-.24.22c-.19.19-.38.37-.59.55h0a15.4,15.4,0,0,1-7.42,3.39l-2,3.4-1,1.69-2.94-5.09a15.48,15.48,0,0,1-7.41-3.37l0,0-.56-.53a3.07,3.07,0,0,1-.26-.25c-.13-.12-.24-.26-.36-.39s-.26-.28-.38-.43a3.92,3.92,0,0,1-.25-.32c-.14-.18-.28-.36-.4-.54s-.16-.26-.25-.39l-.31-.51c-.14-.25-.26-.51-.38-.76a1.42,1.42,0,0,1-.08-.18A10.22,10.22,0,0,1,.5,12.6C.5,5.92,7,.5,15,.5S29.5,5.92,29.5,12.6a10.3,10.3,0,0,1-.88,4.15C28.6,16.8,28.57,16.84,28.55,16.89Z"/><path class="cls-2" d="M7.69,11.11a2,2,0,1,0,2,2A2,2,0,0,0,7.69,11.11Z"/><path class="cls-2" d="M15,11.11a2,2,0,1,0,2,2A2,2,0,0,0,15,11.11Z"/><path class="cls-2" d="M22.31,11.11a2,2,0,1,0,2,2A2,2,0,0,0,22.31,11.11Z"/></g></g></svg>