<svg xmlns="http://www.w3.org/2000/svg" viewBox="0 0 25.22 31.84"><defs><style>.cls-1{fill:#d5ad58;}.cls-2{fill:none;}</style></defs><g id="Layer_2" data-name="Layer 2"><g id="レイヤー_3" data-name="レイヤー 3"><rect class="cls-1" x="22.98" y="24.77" width="1" height="2.18" transform="translate(-10.29 16.94) rotate(-32.96)"/><rect class="cls-2" x="22.14" y="25.31" width="1" height="2.18" transform="translate(-10.72 16.57) rotate(-32.96)"/><rect class="cls-1" x="21.8" y="22.94" width="1" height="2.18" transform="translate(-9.49 16) rotate(-32.97)"/><rect class="cls-2" x="20.96" y="23.48" width="1" height="2.18" transform="translate(-9.92 15.63) rotate(-32.97)"/><rect class="cls-1" x="20.61" y="21.11" width="1" height="2.18" transform="translate(-8.68 15.06) rotate(-32.96)"/><rect class="cls-2" x="19.77" y="21.65" width="1" height="2.18" transform="translate(-9.11 14.69) rotate(-32.97)"/><path class="cls-1" d="M17.06,20.7a4,4,0,0,1,2.47-.55l-.09,1a3,3,0,0,0-1.86.42Z"/><path class="cls-2" d="M17.58,21.56a3,3,0,0,1,1.86-.42l-.09,1a2,2,0,0,0-1.25.27Z"/><path class="cls-1" d="M15.42,22.17a8.4,8.4,0,0,1,1.64-1.47l.52.86a7.07,7.07,0,0,0-1.43,1.3Z"/><path class="cls-2" d="M16.15,22.86a7.07,7.07,0,0,1,1.43-1.3l.52.85a6.48,6.48,0,0,0-1.23,1.14Z"/><path class="cls-1" d="M14.58,22.74a.47.47,0,0,0,.31-.09,2.64,2.64,0,0,0,.53-.48l.73.69a2.08,2.08,0,0,1-1.66.87Z"/><path class="cls-2" d="M14.49,23.73a2.08,2.08,0,0,0,1.66-.87l.72.69a4.52,4.52,0,0,1-.93.8,2.5,2.5,0,0,1-1.54.38Z"/><path class="cls-1" d="M13.41,22.09a2.74,2.74,0,0,0,1.17.65l-.09,1a3.46,3.46,0,0,1-1.71-.87Z"/><path class="cls-2" d="M12.78,22.86a3.46,3.46,0,0,0,1.71.87l-.09,1a4.44,4.44,0,0,1-2.25-1.09Z"/><path class="cls-1" d="M12.12,20.84a13.7,13.7,0,0,0,1.29,1.25l-.63.77a14.72,14.72,0,0,1-1.4-1.34Z"/><path class="cls-2" d="M11.38,21.52a14.72,14.72,0,0,0,1.4,1.34l-.63.78a13.8,13.8,0,0,1-1.5-1.45Z"/><path class="cls-1" d="M10.89,19.41c.4.49.81,1,1.23,1.43l-.74.68c-.43-.48-.86-1-1.26-1.48Z"/><path class="cls-2" d="M10.12,20c.4.5.83,1,1.26,1.48l-.73.67c-.46-.5-.89-1-1.31-1.52Z"/><path class="cls-1" d="M9.75,18l.55.71.59.74-.77.63c-.41-.5-.81-1-1.21-1.53Z"/><path class="cls-2" d="M8.91,18.51c.4.52.8,1,1.21,1.53l-.78.63-.62-.77-.64-.84Z"/><path class="cls-1" d="M8.9,16.34l.44.85.41.77-.84.55c-.3-.57-.61-1.14-.9-1.72Z"/><path class="cls-2" d="M8,16.79c.29.58.6,1.15.9,1.72l-.83.55-.51-.94-.45-.88Z"/><path class="cls-1" d="M8.1,14.64c.25.57.52,1.14.8,1.7L8,16.79c-.29-.58-.57-1.16-.83-1.76Z"/><path class="cls-2" d="M7.18,15c.26.6.54,1.18.83,1.76l-.89.45c-.3-.59-.59-1.19-.86-1.81Z"/><path class="cls-1" d="M7.48,12.94a13.47,13.47,0,0,0,.62,1.7L7.18,15a13.19,13.19,0,0,1-.66-1.82Z"/><path class="cls-2" d="M6.52,13.21A13.19,13.19,0,0,0,7.18,15l-.92.4a16.17,16.17,0,0,1-.71-2Z"/><path class="cls-1" d="M7.36,11.62a2.61,2.61,0,0,0,.12,1.32l-1,.27a3.49,3.49,0,0,1-.11-1.92Z"/><path class="cls-2" d="M6.41,11.29a3.49,3.49,0,0,0,.11,1.92l-1,.26A4.38,4.38,0,0,1,5.46,11Z"/><path class="cls-1" d="M8.21,11.08a3.19,3.19,0,0,0-.65.29.41.41,0,0,0-.2.25l-1-.33a2,2,0,0,1,1.47-1.15Z"/><path class="cls-2" d="M7.88,10.14a2,2,0,0,0-1.47,1.15l-1-.32a2.42,2.42,0,0,1,1-1.25,4.85,4.85,0,0,1,1.1-.52Z"/><path class="cls-1" d="M10.22,10.18a7.63,7.63,0,0,1-2,.9l-.33-.94a7.39,7.39,0,0,0,1.77-.78Z"/><path class="cls-2" d="M9.65,9.36a7.39,7.39,0,0,1-1.77.78L7.54,9.2a6.54,6.54,0,0,0,1.54-.66Z"/><path class="cls-1" d="M11.74,8.16a4.13,4.13,0,0,1-1.52,2l-.57-.82a3.05,3.05,0,0,0,1.14-1.53Z"/><path class="cls-2" d="M10.79,7.83A3.05,3.05,0,0,1,9.65,9.36l-.57-.82a2.13,2.13,0,0,0,.77-1Z"/><rect class="cls-1" x="9.99" y="4.7" width="1" height="2.26" transform="translate(-1.48 6.65) rotate(-32.96)"/><rect class="cls-2" x="9.15" y="5.24" width="1" height="2.26" transform="translate(-1.91 6.28) rotate(-32.96)"/><rect class="cls-1" x="8.76" y="2.8" width="1" height="2.26" transform="translate(-0.65 5.67) rotate(-32.96)"/><rect class="cls-2" x="7.92" y="3.34" width="1" height="2.26" transform="translate(-1.08 5.3) rotate(-32.96)"/><rect class="cls-1" x="7.53" y="0.9" width="1" height="2.26" transform="translate(0.19 4.7) rotate(-32.96)"/><rect class="cls-2" x="6.69" y="1.44" width="1" height="2.26" transform="translate(-0.24 4.33) rotate(-32.96)"/><path class="cls-1" d="M4.07.69A13.19,13.19,0,0,1,6.17.06l.19,1a13.15,13.15,0,0,0-1.94.59Z"/><path class="cls-2" d="M4.42,1.63A13.15,13.15,0,0,1,6.36,1l.19,1a11.77,11.77,0,0,0-1.77.53Z"/><path class="cls-1" d="M2,2l.43-.47A4.47,4.47,0,0,1,3,1.14c.35-.17.69-.32,1-.45l.35.94c-.31.12-.62.25-.92.4a3.91,3.91,0,0,0-.44.26l-.34.37Z"/><path class="cls-2" d="M2.72,2.66l.34-.37A3.91,3.91,0,0,1,3.5,2c.3-.15.61-.28.92-.4l.36.93A9,9,0,0,0,4,2.92l-.24.14-.24.27Z"/><path class="cls-1" d="M.73,4a5.41,5.41,0,0,1,.54-1,3.74,3.74,0,0,1,.32-.49L2,2l.74.67L2.39,3a4.55,4.55,0,0,0-.28.43,4.17,4.17,0,0,0-.46.89Z"/><path class="cls-2" d="M1.65,4.36a4.17,4.17,0,0,1,.46-.89A4.55,4.55,0,0,1,2.39,3l.33-.38.75.67-.29.31C3.1,3.75,3,3.88,3,4a3.34,3.34,0,0,0-.39.75Z"/><path class="cls-1" d="M.11,6.16A9.55,9.55,0,0,1,.73,4l.92.39A8.25,8.25,0,0,0,1.1,6.3Z"/><path class="cls-2" d="M1.1,6.3a8.25,8.25,0,0,1,.55-1.94l.92.39a6.79,6.79,0,0,0-.48,1.7Z"/><path class="cls-1" d="M0,8.36C0,8,0,7.63,0,7.26l.1-1.1,1,.14L1,7.31c0,.34,0,.68,0,1Z"/><path class="cls-2" d="M1,8.32c0-.33,0-.67,0-1l.09-1,1,.15L2,7.36C2,7.67,2,8,2,8.29Z"/><path class="cls-1" d="M.23,10.5A15.37,15.37,0,0,1,0,8.36l1,0a14.87,14.87,0,0,0,.2,2Z"/><path class="cls-2" d="M1.21,10.33a14.87,14.87,0,0,1-.2-2l1,0a13.46,13.46,0,0,0,.19,1.88Z"/><path class="cls-1" d="M.69,12.57A18.2,18.2,0,0,1,.23,10.5l1-.17a18.88,18.88,0,0,0,.44,2Z"/><path class="cls-2" d="M1.65,12.31a18.88,18.88,0,0,1-.44-2l1-.16a17.56,17.56,0,0,0,.42,1.88Z"/><path class="cls-1" d="M1.31,14.58c-.21-.67-.46-1.32-.62-2l1-.26c.15.66.4,1.29.6,1.93Z"/><path class="cls-2" d="M2.25,14.24c-.2-.64-.45-1.27-.6-1.93l1-.26c.14.63.38,1.24.57,1.85Z"/><path class="cls-1" d="M2.09,16.52c-.29-.63-.53-1.29-.78-1.94l.94-.34c.25.63.48,1.27.76,1.88Z"/><path class="cls-2" d="M3,16.12c-.28-.61-.51-1.25-.76-1.88l.94-.34c.24.61.46,1.22.73,1.82Z"/><path class="cls-1" d="M3,18.4c-.33-.61-.61-1.24-.9-1.88l.92-.4c.28.61.55,1.23.87,1.83Z"/><path class="cls-2" d="M3.88,18c-.32-.6-.59-1.22-.87-1.83l.91-.4c.27.59.54,1.19.85,1.77Z"/><path class="cls-1" d="M4,20.23c-.36-.6-.7-1.2-1-1.83L3.88,18c.3.6.63,1.19,1,1.77Z"/><path class="cls-2" d="M4.86,19.72c-.35-.58-.68-1.17-1-1.77l.89-.46c.29.59.62,1.15,1,1.72Z"/><path class="cls-1" d="M5.1,22c-.37-.59-.77-1.15-1.1-1.76l.86-.51c.32.59.71,1.14,1.07,1.71Z"/><path class="cls-2" d="M5.93,21.43c-.36-.57-.75-1.12-1.07-1.71l.86-.51c.31.58.7,1.11,1,1.67Z"/><path class="cls-1" d="M6.31,23.69c-.42-.56-.81-1.13-1.21-1.7l.83-.56c.39.56.77,1.11,1.18,1.65Z"/><path class="cls-2" d="M7.11,23.08c-.41-.54-.79-1.09-1.18-1.65l.83-.55c.38.53.75,1.08,1.14,1.6Z"/><path class="cls-1" d="M7.63,25.3c-.47-.51-.89-1.07-1.32-1.61l.8-.61c.42.53.82,1.07,1.27,1.57Z"/><path class="cls-2" d="M8.38,24.65c-.45-.5-.85-1-1.27-1.57l.79-.6c.41.51.8,1,1.24,1.52Z"/><path class="cls-1" d="M9.05,26.84A20.72,20.72,0,0,1,7.63,25.3l.75-.65c.44.52.9,1,1.38,1.49Z"/><path class="cls-2" d="M9.76,26.14c-.48-.48-.94-1-1.38-1.49L9.14,24c.42.5.87,1,1.33,1.43Z"/><path class="cls-1" d="M10.59,28.28c-.52-.47-1.06-.93-1.54-1.44l.71-.7c.46.49,1,.92,1.48,1.38Z"/><path class="cls-2" d="M11.24,27.52c-.5-.46-1-.89-1.48-1.38l.71-.71c.44.48.94.89,1.41,1.33Z"/><path class="cls-1" d="M12.28,29.57a17.93,17.93,0,0,1-1.69-1.29l.65-.76c.53.42,1,.86,1.6,1.23Z"/><path class="cls-2" d="M12.84,28.75c-.57-.37-1.07-.81-1.6-1.23l.64-.76c.51.39,1,.82,1.53,1.16Z"/><path class="cls-1" d="M14.12,30.69a18.77,18.77,0,0,1-1.84-1.12l.56-.82c.55.4,1.15.71,1.73,1.05Z"/><path class="cls-2" d="M14.57,29.8c-.58-.34-1.18-.65-1.73-1.05l.57-.83a15.86,15.86,0,0,0,1.62,1Z"/><path class="cls-1" d="M16.19,31.49a12.86,12.86,0,0,1-2.07-.8l.45-.89a12.73,12.73,0,0,0,1.89.73Z"/><path class="cls-2" d="M16.46,30.53a12.73,12.73,0,0,1-1.89-.73l.46-.9a11.11,11.11,0,0,0,1.7.67Z"/><path class="cls-1" d="M18.44,31.83a4.92,4.92,0,0,1-1.15-.1,5.66,5.66,0,0,1-1.1-.24l.27-1a4.76,4.76,0,0,0,1,.21,4.32,4.32,0,0,0,1,.09Z"/><path class="cls-2" d="M18.45,30.83a4.32,4.32,0,0,1-1-.09,4.76,4.76,0,0,1-1-.21l.27-1a4.52,4.52,0,0,0,.87.19,3.16,3.16,0,0,0,.86.07Z"/><path class="cls-1" d="M20.76,31.47a6.58,6.58,0,0,1-2.32.36v-1a5.64,5.64,0,0,0,2-.31Z"/><path class="cls-2" d="M20.44,30.52a5.64,5.64,0,0,1-2,.31v-1a4.65,4.65,0,0,0,1.66-.25Z"/><path class="cls-1" d="M22.83,30.37l-1,.63a8,8,0,0,1-1.08.47l-.32-.95a6.24,6.24,0,0,0,.92-.4l.86-.54Z"/><path class="cls-2" d="M22.22,29.58l-.86.54a6.24,6.24,0,0,1-.92.4l-.32-.94a7.27,7.27,0,0,0,.76-.33l.72-.46Z"/><path class="cls-1" d="M24.4,28.74a10.49,10.49,0,0,1-1.57,1.63l-.61-.79a9.14,9.14,0,0,0,1.39-1.46Z"/><path class="cls-2" d="M23.61,28.12a9.14,9.14,0,0,1-1.39,1.46l-.62-.79a7.94,7.94,0,0,0,1.23-1.29Z"/><polygon class="cls-1" points="19.44 21.14 19.87 21.2 20.71 20.66 20.48 20.3 20.05 20.22 19.53 20.15 19.44 21.14"/><polygon class="cls-1" points="20.1 21.57 20.95 21.03 20.71 20.66 19.87 21.2 20.1 21.57"/><polygon class="cls-1" points="10.68 7.04 10.92 7.41 11.89 7.65 11.99 7.22 11.52 6.49 10.68 7.04"/><polygon class="cls-1" points="10.79 7.83 11.74 8.16 11.89 7.65 10.92 7.41 10.79 7.83"/><polygon class="cls-1" points="6.36 1.04 6.56 1.01 6.67 1 6.69 1 6.72 1 6.77 1 7.6 0.45 7.38 0.11 6.98 0.03 6.88 0.01 6.78 0 6.68 0 6.62 0 6.44 0.02 6.17 0.06 6.36 1.04"/><polygon class="cls-1" points="6.99 1.35 7.83 0.8 7.6 0.45 6.77 1 6.99 1.35"/><polygon class="cls-1" points="23.66 27.05 24.02 27.61 24.85 28.17 25.22 27.62 24.51 26.52 23.66 27.05"/><polygon class="cls-1" points="23.61 28.12 24.4 28.74 24.85 28.17 24.02 27.61 23.61 28.12"/></g></g></svg>