<svg xmlns="http://www.w3.org/2000/svg" viewBox="0 0 86.4 86.4"><defs><style>.cls-1{fill:#06c755;}.cls-2{fill:#fff;}</style></defs><g id="Layer_2" data-name="Layer 2"><g id="Layer_1-2" data-name="Layer 1"><rect class="cls-1" width="86.4" height="86.4" rx="18.04"/><path class="cls-2" d="M72,39.13c0-12.89-12.92-23.38-28.81-23.38s-28.8,10.49-28.8,23.38c0,11.56,10.24,21.23,24.09,23.06.93.21,2.21.62,2.53,1.42a6.05,6.05,0,0,1,.1,2.61s-.34,2-.41,2.46c-.13.73-.58,2.85,2.49,1.56s16.59-9.77,22.63-16.73h0C70,48.93,72,44.29,72,39.13Z"/><path class="cls-1" d="M62.41,46.57H54.32a.55.55,0,0,1-.55-.55h0V33.46h0a.55.55,0,0,1,.55-.55h8.09a.55.55,0,0,1,.55.55v2a.54.54,0,0,1-.55.55h-5.5v2.13h5.5a.54.54,0,0,1,.55.55v2a.55.55,0,0,1-.55.55h-5.5v2.12h5.5A.55.55,0,0,1,63,44v2A.54.54,0,0,1,62.41,46.57Z"/><path class="cls-1" d="M32.48,46.57A.55.55,0,0,0,33,46V44a.55.55,0,0,0-.55-.55H27v-10a.55.55,0,0,0-.55-.55h-2a.55.55,0,0,0-.55.55V46h0a.54.54,0,0,0,.55.55h8.09Z"/><rect class="cls-1" x="34.76" y="32.9" width="3.14" height="13.67" rx="0.55"/><path class="cls-1" d="M51.26,32.9h-2a.55.55,0,0,0-.55.55v7.47l-5.75-7.77,0-.06h0l0,0h0l0,0h0l0,0h0l0,0H40.41a.55.55,0,0,0-.55.55V46a.55.55,0,0,0,.55.55h2.05A.55.55,0,0,0,43,46V38.56l5.76,7.78a.44.44,0,0,0,.14.13h0l0,0h.13a.39.39,0,0,0,.15,0h2a.55.55,0,0,0,.55-.55V33.45A.55.55,0,0,0,51.26,32.9Z"/></g></g></svg>