<svg xmlns="http://www.w3.org/2000/svg" viewBox="0 0 30 20.67"><defs><style>.cls-1{fill:#fff;}.cls-2{fill:none;}</style></defs><g id="Layer_2" data-name="Layer 2"><g id="レイヤー_3" data-name="レイヤー 3"><rect class="cls-1" x="1" y="16.58" width="1" height="2.08"/><rect class="cls-2" y="16.58" width="1" height="2.08"/><rect class="cls-1" x="1" y="14.5" width="1" height="2.08"/><rect class="cls-2" y="14.5" width="1" height="2.08"/><rect class="cls-1" x="1" y="12.42" width="1" height="2.08"/><rect class="cls-2" y="12.42" width="1" height="2.08"/><rect class="cls-1" x="1" y="10.33" width="1" height="2.08"/><rect class="cls-2" y="10.33" width="1" height="2.08"/><rect class="cls-1" x="1" y="8.25" width="1" height="2.08"/><rect class="cls-2" y="8.25" width="1" height="2.08"/><rect class="cls-1" x="1" y="6.17" width="1" height="2.08"/><rect class="cls-2" y="6.17" width="1" height="2.08"/><rect class="cls-1" x="1" y="4.08" width="1" height="2.08"/><rect class="cls-2" y="4.08" width="1" height="2.08"/><rect class="cls-1" x="1" y="2" width="1" height="2.08"/><rect class="cls-2" y="2" width="1" height="2.08"/><rect class="cls-1" x="2" y="1" width="2" height="1"/><rect class="cls-2" x="2" width="2" height="1"/><rect class="cls-1" x="4" y="1" width="2" height="1"/><rect class="cls-2" x="4" width="2" height="1"/><rect class="cls-1" x="6" y="1" width="2" height="1"/><rect class="cls-2" x="6" width="2" height="1"/><rect class="cls-1" x="8" y="1" width="2" height="1"/><rect class="cls-2" x="8" width="2" height="1"/><rect class="cls-1" x="10" y="1" width="2" height="1"/><rect class="cls-2" x="10" width="2" height="1"/><rect class="cls-1" x="12" y="1" width="2" height="1"/><rect class="cls-2" x="12" width="2" height="1"/><rect class="cls-1" x="14" y="1" width="2" height="1"/><rect class="cls-2" x="14" width="2" height="1"/><rect class="cls-1" x="16" y="1" width="2" height="1"/><rect class="cls-2" x="16" width="2" height="1"/><rect class="cls-1" x="18" y="1" width="2" height="1"/><rect class="cls-2" x="18" width="2" height="1"/><rect class="cls-1" x="20" y="1" width="2" height="1"/><rect class="cls-2" x="20" width="2" height="1"/><rect class="cls-1" x="22" y="1" width="2" height="1"/><rect class="cls-2" x="22" width="2" height="1"/><rect class="cls-1" x="24" y="1" width="2" height="1"/><rect class="cls-2" x="24" width="2" height="1"/><rect class="cls-1" x="26" y="1" width="2" height="1"/><rect class="cls-2" x="26" width="2" height="1"/><rect class="cls-1" x="28" y="2" width="1" height="2.08"/><rect class="cls-2" x="29" y="2" width="1" height="2.08"/><rect class="cls-1" x="28" y="4.08" width="1" height="2.08"/><rect class="cls-2" x="29" y="4.08" width="1" height="2.08"/><rect class="cls-1" x="28" y="6.17" width="1" height="2.08"/><rect class="cls-2" x="29" y="6.17" width="1" height="2.08"/><rect class="cls-1" x="28" y="8.25" width="1" height="2.08"/><rect class="cls-2" x="29" y="8.25" width="1" height="2.08"/><rect class="cls-1" x="28" y="10.33" width="1" height="2.08"/><rect class="cls-2" x="29" y="10.33" width="1" height="2.08"/><rect class="cls-1" x="28" y="12.42" width="1" height="2.08"/><rect class="cls-2" x="29" y="12.42" width="1" height="2.08"/><rect class="cls-1" x="28" y="14.5" width="1" height="2.08"/><rect class="cls-2" x="29" y="14.5" width="1" height="2.08"/><rect class="cls-1" x="28" y="16.58" width="1" height="2.08"/><rect class="cls-2" x="29" y="16.58" width="1" height="2.08"/><rect class="cls-1" x="26" y="18.67" width="2" height="1"/><rect class="cls-2" x="26" y="19.67" width="2" height="1"/><rect class="cls-1" x="24" y="18.67" width="2" height="1"/><rect class="cls-2" x="24" y="19.67" width="2" height="1"/><rect class="cls-1" x="22" y="18.67" width="2" height="1"/><rect class="cls-2" x="22" y="19.67" width="2" height="1"/><rect class="cls-1" x="20" y="18.67" width="2" height="1"/><rect class="cls-2" x="20" y="19.67" width="2" height="1"/><rect class="cls-1" x="18" y="18.67" width="2" height="1"/><rect class="cls-2" x="18" y="19.67" width="2" height="1"/><rect class="cls-1" x="16" y="18.67" width="2" height="1"/><rect class="cls-2" x="16" y="19.67" width="2" height="1"/><rect class="cls-1" x="14" y="18.67" width="2" height="1"/><rect class="cls-2" x="14" y="19.67" width="2" height="1"/><rect class="cls-1" x="12" y="18.67" width="2" height="1"/><rect class="cls-2" x="12" y="19.67" width="2" height="1"/><rect class="cls-1" x="10" y="18.67" width="2" height="1"/><rect class="cls-2" x="10" y="19.67" width="2" height="1"/><rect class="cls-1" x="8" y="18.67" width="2" height="1"/><rect class="cls-2" x="8" y="19.67" width="2" height="1"/><rect class="cls-1" x="6" y="18.67" width="2" height="1"/><rect class="cls-2" x="6" y="19.67" width="2" height="1"/><rect class="cls-1" x="4" y="18.67" width="2" height="1"/><rect class="cls-2" x="4" y="19.67" width="2" height="1"/><rect class="cls-1" x="2" y="18.67" width="2" height="1"/><rect class="cls-2" x="2" y="19.67" width="2" height="1"/><rect class="cls-1" x="1" y="1" width="1" height="1"/><rect class="cls-2" width="2" height="1"/><rect class="cls-1" x="28" y="1" width="1" height="1"/><rect class="cls-2" x="29" width="1" height="2"/><rect class="cls-1" x="28" y="18.67" width="1" height="1"/><rect class="cls-2" x="28" y="19.67" width="2" height="1"/><rect class="cls-1" x="1" y="18.67" width="1" height="1"/><rect class="cls-2" y="18.67" width="1" height="2"/><rect class="cls-1" x="26.81" y="1.9" width="2.1" height="1" transform="translate(4.22 17.34) rotate(-37.22)"/><rect class="cls-2" x="27.41" y="2.7" width="2.1" height="1" transform="translate(3.86 17.87) rotate(-37.22)"/><rect class="cls-1" x="25.13" y="3.18" width="2.1" height="1" transform="translate(3.11 16.59) rotate(-37.22)"/><rect class="cls-2" x="25.74" y="3.97" width="2.1" height="1" transform="matrix(0.8, -0.6, 0.6, 0.8, 2.75, 17.12)"/><rect class="cls-1" x="23.46" y="4.45" width="2.1" height="1" transform="translate(2 15.83) rotate(-37.22)"/><rect class="cls-2" x="24.07" y="5.24" width="2.1" height="1" transform="translate(1.64 16.36) rotate(-37.22)"/><rect class="cls-1" x="21.79" y="5.72" width="2.1" height="1" transform="translate(0.89 15.08) rotate(-37.22)"/><rect class="cls-2" x="22.39" y="6.52" width="2.1" height="1" transform="matrix(0.8, -0.6, 0.6, 0.8, 0.53, 15.61)"/><rect class="cls-1" x="20.11" y="6.99" width="2.1" height="1" transform="matrix(0.8, -0.6, 0.6, 0.8, -0.22, 14.33)"/><rect class="cls-2" x="20.72" y="7.79" width="2.1" height="1" transform="translate(-0.58 14.86) rotate(-37.22)"/><rect class="cls-1" x="18.44" y="8.26" width="2.1" height="1" transform="translate(-1.33 13.57) rotate(-37.22)"/><rect class="cls-2" x="19.04" y="9.06" width="2.1" height="1" transform="matrix(0.8, -0.6, 0.6, 0.8, -1.69, 14.1)"/><rect class="cls-1" x="16.76" y="9.54" width="2.1" height="1" transform="matrix(0.8, -0.6, 0.6, 0.8, -2.44, 12.82)"/><rect class="cls-2" x="17.37" y="10.33" width="2.1" height="1" transform="translate(-2.8 13.35) rotate(-37.22)"/><rect class="cls-1" x="15.09" y="10.81" width="2.1" height="1" transform="translate(-3.55 12.07) rotate(-37.22)"/><rect class="cls-2" x="15.69" y="11.6" width="2.1" height="1" transform="translate(-3.91 12.59) rotate(-37.22)"/><rect class="cls-1" x="13.36" y="10.26" width="1" height="2.1" transform="translate(-3.53 15.5) rotate(-52.78)"/><rect class="cls-2" x="12.76" y="11.05" width="1" height="2.1" transform="translate(-4.4 15.34) rotate(-52.78)"/><rect class="cls-1" x="11.69" y="8.98" width="1" height="2.1" transform="translate(-3.18 13.67) rotate(-52.78)"/><rect class="cls-2" x="11.08" y="9.78" width="1" height="2.1" transform="translate(-4.05 13.5) rotate(-52.78)"/><rect class="cls-1" x="10.01" y="7.71" width="1" height="2.1" transform="translate(-2.83 11.83) rotate(-52.78)"/><rect class="cls-2" x="9.41" y="8.51" width="1" height="2.1" transform="translate(-3.7 11.67) rotate(-52.78)"/><rect class="cls-1" x="8.34" y="6.44" width="1" height="2.1" transform="translate(-2.47 10) rotate(-52.78)"/><rect class="cls-2" x="7.73" y="7.24" width="1" height="2.1" transform="translate(-3.35 9.83) rotate(-52.78)"/><rect class="cls-1" x="6.66" y="5.17" width="1" height="2.1" transform="matrix(0.6, -0.8, 0.8, 0.6, -2.12, 8.16)"/><rect class="cls-2" x="6.06" y="5.97" width="1" height="2.1" transform="translate(-3 8) rotate(-52.78)"/><rect class="cls-1" x="4.99" y="3.9" width="1" height="2.1" transform="translate(-1.77 6.33) rotate(-52.78)"/><rect class="cls-2" x="4.38" y="4.69" width="1" height="2.1" transform="translate(-2.64 6.16) rotate(-52.78)"/><rect class="cls-1" x="3.31" y="2.63" width="1" height="2.1" transform="translate(-1.42 4.49) rotate(-52.78)"/><rect class="cls-2" x="2.71" y="3.42" width="1" height="2.1" transform="translate(-2.29 4.32) rotate(-52.78)"/><rect class="cls-1" x="1.64" y="1.35" width="1" height="2.1" transform="translate(-1.07 2.65) rotate(-52.78)"/><rect class="cls-2" x="1.03" y="2.15" width="1" height="2.1" transform="matrix(0.6, -0.8, 0.8, 0.6, -1.94, 2.49)"/><polygon class="cls-1" points="15 11.54 15.61 12.34 15 12.8 14.39 12.34 15 11.54"/><polygon class="cls-2" points="14.39 12.34 15 12.8 15.61 13.6 15 14.06 13.79 13.14 14.39 12.34"/></g></g></svg>